<svg viewBox="0 0 72 72" xmlns="http://www.w3.org/2000/svg"><path d="m33.9763 42.6906.0298 6.4591.0298 6.4592-5.9193-3.807-5.9194-3.8069 5.8896-2.6522z" fill="#d22f27"/><circle cx="45" cy="27" fill="#ea5a47" r="23.0003"/><path d="m60.8265 10.549c-1.3409-1.3409-2.8082-2.477-4.3606-3.4175 5.3598 8.8471 4.2238 20.5254-3.4175 28.1667s-19.3196 8.7774-28.1667 3.4175c.9405 1.5525 2.0767 3.0197 3.4175 4.3606 8.9822 8.9822 23.5452 8.9822 32.5273 0 8.9822-8.9821 8.9822-23.5451 0-32.5273z" fill="#d22f27"/><g fill="none" stroke="#000" stroke-miterlimit="10"><path d="m34 47.2098.01 1.94.03 6.46-5.92-3.81-5.92-3.8 5.89-2.66 1.95-.88" stroke-linecap="round" stroke-linejoin="round" stroke-width="2.1216"/><circle cx="45" cy="27" r="23.0003" stroke-width="2"/><path d="m17.7253 65.09c.5048.0395 1.0254-.0002 1.547-.1285 2.7035-.6648 4.41-3.458 3.8116-6.2388" stroke-linecap="round" stroke-linejoin="round" stroke-width="2"/><path d="m23.1406 58.907c-.1631-.4794-.2535-.9936-.2582-1.5307-.0246-2.7839 2.2596-5.1284 5.102-5.2364" stroke-linecap="round" stroke-linejoin="round" stroke-width="2"/></g></svg>